<svg xmlns="http://www.w3.org/2000/svg" xmlns:xlink="http://www.w3.org/1999/xlink" width="500" height="500" viewBox="0 0 500 500">
  <defs>
    <clipPath id="clip-path">
      <path id="Path_2" data-name="Path 2" d="M97,76H362V363H97Zm0,0"/>
    </clipPath>
    <clipPath id="clip-path-2">
      <path id="Path_4" data-name="Path 4" d="M.047,1H302V273H.047Zm0,0"/>
    </clipPath>
    <clipPath id="clip-Artboard_1">
      <rect width="500" height="500"/>
    </clipPath>
  </defs>
  <g id="Artboard_1" data-name="Artboard – 1" clip-path="url(#clip-Artboard_1)">
    <rect width="500" height="500" fill="#fff"/>
    <g id="surface1" transform="translate(69.953 66)">
      <g id="Group_1" data-name="Group 1" clip-path="url(#clip-path)">
        <path id="Path_1" data-name="Path 1" d="M354.008,363.18a7.53,7.53,0,0,0,6.555-11.234C294.711,235.484,242.7,143.5,108.8,77.766a7.532,7.532,0,0,0-6.629,13.527c129.719,63.684,180.719,153.875,245.289,268.063A7.514,7.514,0,0,0,354.008,363.18Zm0,0" fill="#846add"/>
      </g>
      <g id="Group_2" data-name="Group 2" clip-path="url(#clip-path-2)">
        <path id="Path_3" data-name="Path 3" d="M251.332,272.477c19.457,0,33.859-9.187,41.766-26.691,32.594-72.191-36.586-134.187-39.555-136.793a7.356,7.356,0,0,0-6.414-1.734,7.565,7.565,0,0,0-5.289,4.023l-5,10.016c-2.875-12.848-7.109-27.4-12.59-34.027C214.82,75.852,170.477,52.34,161.7,47.73a7.48,7.48,0,0,0-8.812,1.344l-7.668,7.664-10.391-20.77a7.551,7.551,0,0,0-4.129-3.707C127.578,31.117,53.789,4.066,7.984,1.688A7.381,7.381,0,0,0,1.3,5.09a7.6,7.6,0,0,0-.437,7.5l60.25,120.5a7.579,7.579,0,0,0,5.5,4.066l54.633,9.1-25.109,6.281a7.523,7.523,0,0,0-5.273,9.8c9.281,26.285,99.836,107.637,157.777,110.074C249.523,272.461,250.441,272.477,251.332,272.477Zm-.711-145.094c15.785,17.125,50.957,63.02,28.738,112.2-5.754,12.758-15.227,18.3-30.109,17.789C202.875,255.41,128.7,191.473,109.355,164.75l50.652-12.668a7.529,7.529,0,0,0-.586-14.73l-86.594-14.43L20.383,18.031c38.422,5.2,89.844,22.953,102.285,27.383L136.391,72.84A7.537,7.537,0,0,0,148.457,74.8l11.129-11.133c19.52,10.422,47.719,26.719,53.066,33.184,5.227,6.34,10.992,32.473,13.418,49.012a7.53,7.53,0,0,0,14.176,2.289Zm0,0" fill="#846add"/>
      </g>
      <path id="Path_5" data-name="Path 5" d="M343.738,360.469l.176-.082c-.121.039-.164.063-.176.082" fill="#846add"/>
      <path id="Path_6" data-name="Path 6" d="M309.027,350.414l.242.047a1.7,1.7,0,0,0-.242-.047" fill="#846add"/>
      <path id="Path_7" data-name="Path 7" d="M329.652,358.828a1.252,1.252,0,0,1-.289-.062c.133.051.238.086.289.063" fill="#846add"/>
      <path id="Path_8" data-name="Path 8" d="M184.277,360.473a3.067,3.067,0,0,0-.25.941,6.693,6.693,0,0,1,.25-.941" fill="#846add"/>
      <path id="Path_9" data-name="Path 9" d="M278.32,363.031l.047-.055c-.051.031-.059.047-.047.055" fill="#846add"/>
      <path id="Path_10" data-name="Path 10" d="M184.766,361.145l-.094.211a1.21,1.21,0,0,0,.094-.211" fill="#846add"/>
      <path id="Path_11" data-name="Path 11" d="M271.574,366.7l-.215-.012c.1.008.168.012.215.012" fill="#846add"/>
      <path id="Path_12" data-name="Path 12" d="M184.766,361.145c.035-.078.082-.156.125-.234-.023.016-.047.039-.07.059a1.516,1.516,0,0,1-.055.176" fill="#846add"/>
      <path id="Path_13" data-name="Path 13" d="M245.7,354.457h.012c.023,0,.047,0,.074,0l-.086,0" fill="#846add"/>
      <path id="Path_14" data-name="Path 14" d="M243.789,353.977c.141.012.273.027.418.043a1.505,1.505,0,0,0-.418-.043" fill="#846add"/>
      <path id="Path_15" data-name="Path 15" d="M184.027,361.414a5.225,5.225,0,0,0-.086.543c.039-.191.051-.371.086-.543" fill="#846add"/>
      <path id="Path_16" data-name="Path 16" d="M224.9,361.7c.047-.039.09-.078.129-.113a1.082,1.082,0,0,0-.129.113" fill="#846add"/>
      <path id="Path_17" data-name="Path 17" d="M330.938,359.352c.035.02.094.043.141.066.023-.012.02-.027-.141-.066" fill="#846add"/>
      <path id="Path_18" data-name="Path 18" d="M318.129,356.1a2.079,2.079,0,0,0-.715-.2,2.551,2.551,0,0,0,.715.2" fill="#846add"/>
      <path id="Path_19" data-name="Path 19" d="M315.98,355.246c.023.016.047.023.074.043a.363.363,0,0,0-.074-.043" fill="#846add"/>
      <path id="Path_20" data-name="Path 20" d="M329.652,361.328a.014.014,0,0,0,0-.008s-.008,0-.012,0l.008,0" fill="#846add"/>
      <path id="Path_21" data-name="Path 21" d="M326.848,360.246a1.753,1.753,0,0,0-.176-.113.806.806,0,0,0,.176.113" fill="#846add"/>
      <path id="Path_22" data-name="Path 22" d="M309.117,353.184a0,0,0,0,0,0,0s-.008,0-.016,0a.03.03,0,0,1,.012.008" fill="#846add"/>
      <path id="Path_25" data-name="Path 25" d="M330.016,361.48c-.125-.047-.242-.1-.363-.152-.008.027-.035.051-.215.02.191.043.379.094.578.133" fill="#846add"/>
      <path id="Path_26" data-name="Path 26" d="M313.352,354.328a.843.843,0,0,0-.137-.012c.086.023.117.02.137.012" fill="#846add"/>
      <path id="Path_27" data-name="Path 27" d="M309.207,353.3c.3.051.047-.051-.09-.117-.012.02-.012.055.09.117" fill="#846add"/>
      <path id="Path_28" data-name="Path 28" d="M340.488,362.969c-.07.012-.113.031-.1.055.094-.023.113-.043.1-.055" fill="#846add"/>
      <path id="Path_29" data-name="Path 29" d="M333.422,362.223a1.248,1.248,0,0,0-.309-.035.97.97,0,0,0,.309.035" fill="#846add"/>
    </g>
    <path id="Path_30" data-name="Path 30" d="M354.008,363.18a7.53,7.53,0,0,0,6.555-11.234C294.711,235.484,242.7,143.5,108.8,77.766a7.532,7.532,0,0,0-6.629,13.527c129.719,63.684,180.719,153.875,245.289,268.063A7.514,7.514,0,0,0,354.008,363.18Zm0,0" transform="translate(69.953 66)" fill="#846add"/>
    <path id="Path_31" data-name="Path 31" d="M311.3,327.305c.805,0,10.7,2.636,8.64-2.918-1.254-.919-5.686-.941-9.047-4.656-7.656-4.626-20.76-17.5-26.584-25.672-6.653-5.511-15.095-17.981-17.043-25.118-1.89-6.924-1.751-19.8-5.047-26.071-15.57-29.633-37.248-16.681-50.421-37.265-6.843-10.692-8.574-15.03-13.3-29.709-8.466-11.338-4.068-10.555-20.8-21.906-8.1-5.5-20.527-4.632-36.64-18.511-11.281-6.395-9.809-32.913-24.517-40.044-3.725-1.793-9.212-4.078-11.047-.383-1.831,3.679-.33,5.938,3.411,7.751,18.577,9.007,13.529,30.09,27.5,38.96,17.81,11.307,31.334,10.667,43.466,22.569,10.806,10.6,10.479,32.939,18.643,44.864,10.781,15.749,37.347,9.285,47.3,28.857,4.961,9.751,10.642,32.564,16.43,43.873,7.263,14.19,30.829,31.634,45.853,43.733C300.64,314.119,299.68,321.359,311.3,327.305Zm36.771,32.036" transform="matrix(0.719, -0.695, 0.695, 0.719, -33.383, 421.074)" fill="#846add"/>
  </g>
</svg>
