<svg xmlns="http://www.w3.org/2000/svg" xmlns:xlink="http://www.w3.org/1999/xlink" width="1433" height="500" viewBox="0 0 1433 500">
  <defs>
    <clipPath id="clip-path">
      <path id="Path_2" data-name="Path 2" d="M97,76H739.2V423.389H97Zm0,0" transform="translate(-97 -76)" fill="#fff"/>
    </clipPath>
    <clipPath id="clip-path-2">
      <path id="Path_4" data-name="Path 4" d="M0,0H232.453V209.394H0ZM0,0" fill="#fff"/>
    </clipPath>
    <clipPath id="clip-Apprenant-Logo">
      <rect width="1433" height="500"/>
    </clipPath>
  </defs>
  <g id="Apprenant-Logo" clip-path="url(#clip-Apprenant-Logo)">
    <rect width="1433" height="500" fill="#8540f5"/>
    <g id="Group_3" data-name="Group 3" transform="translate(554.822 44.527)">
      <g id="Group_1" data-name="Group 1" transform="matrix(0.998, -0.07, 0.07, 0.998, 256.213, 96.024)" clip-path="url(#clip-path)">
        <path id="Path_1" data-name="Path 1" d="M183.97,238.486a7.122,7.122,0,0,0,2.765-1.245c2.328-1.431,2.8-5.494,1.5-7.987C146.419,148.9,92.712,45.535,7,.52A4.723,4.723,0,0,0,.511,2.942,5.348,5.348,0,0,0,2.686,9.9C85.724,53.516,136.541,156.736,177.547,235.519,178.428,237.211,182.289,238.5,183.97,238.486Zm-5.262-3.987" transform="matrix(0.966, 0.259, -0.259, 0.966, 443.514, 69.948)" fill="#fff"/>
      </g>
      <g id="Group_2" data-name="Group 2" transform="translate(605.806 41.799) rotate(9)" clip-path="url(#clip-path-2)">
        <path id="Path_3" data-name="Path 3" d="M193.428,208.476c14.979,0,26.066-7.073,32.152-20.548,25.092-55.575-28.165-103.3-30.45-105.307a5.663,5.663,0,0,0-4.938-1.335,5.824,5.824,0,0,0-4.072,3.1l-3.849,7.71C180.058,82.2,176.8,71,172.579,65.9c-7.259-8.79-41.4-26.89-48.157-30.438a5.758,5.758,0,0,0-6.784,1.034l-5.9,5.9-8-15.989a5.813,5.813,0,0,0-3.179-2.854C98.158,22.67,41.353,1.846,6.091.014A5.682,5.682,0,0,0,.943,2.634,5.847,5.847,0,0,0,.606,8.41l46.382,92.762a5.834,5.834,0,0,0,4.231,3.13l42.058,7-19.33,4.836a5.791,5.791,0,0,0-4.06,7.548c7.145,20.235,76.857,82.862,121.462,84.739C192.035,208.464,192.742,208.476,193.428,208.476Zm-.547-111.7c12.152,13.183,39.228,48.514,22.124,86.371-4.43,9.821-11.722,14.089-23.179,13.695-35.7-1.507-92.807-50.728-107.7-71.3l38.994-9.752a5.8,5.8,0,0,0-.451-11.34L56.01,93.344,15.636,12.6c29.578,4,69.164,17.67,78.742,21.08L104.942,54.79a5.8,5.8,0,0,0,9.289,1.51l8.567-8.57c15.027,8.023,36.735,20.569,40.852,25.546,4.024,4.881,8.462,25,10.33,37.731a5.8,5.8,0,0,0,10.913,1.762Zm0,0" transform="translate(0.019 0.515)" fill="#fff"/>
      </g>
      <path id="Path_5" data-name="Path 5" d="M343.738,360.461l.159-.074c-.109.035-.148.057-.159.074" transform="translate(494.594 -32.416)" fill="#fff"/>
      <path id="Path_6" data-name="Path 6" d="M309.027,350.414l.219.042a1.541,1.541,0,0,0-.219-.042" transform="translate(497.919 -30.397)" fill="#fff"/>
      <path id="Path_7" data-name="Path 7" d="M329.625,358.822a1.132,1.132,0,0,1-.261-.057c.12.046.215.078.261.057" transform="translate(495.971 -32.087)" fill="#fff"/>
      <path id="Path_8" data-name="Path 8" d="M184.253,360.473a2.773,2.773,0,0,0-.226.851,6.056,6.056,0,0,1,.226-.851" transform="translate(523.526 -32.505)" fill="#fff"/>
      <path id="Path_9" data-name="Path 9" d="M278.32,363.026l.042-.049c-.046.028-.053.042-.042.049" transform="translate(500.861 -32.937)" fill="#fff"/>
      <path id="Path_10" data-name="Path 10" d="M184.757,361.145l-.085.191a1.094,1.094,0,0,0,.085-.191" transform="translate(523.435 -32.58)" fill="#fff"/>
      <path id="Path_11" data-name="Path 11" d="M271.554,366.7l-.194-.011c.092.007.152.011.194.011" transform="translate(501.528 -44.417)" fill="#fff"/>
      <path id="Path_12" data-name="Path 12" d="M184.766,361.122c.032-.071.074-.141.113-.212-.021.014-.042.035-.064.053a1.37,1.37,0,0,1-.049.159" transform="translate(523.419 -32.534)" fill="#fff"/>
      <path id="Path_13" data-name="Path 13" d="M245.7,354.457h.011c.021,0,.042,0,.067,0l-.078,0" transform="translate(514.194 -31.211)" fill="#fff"/>
      <path id="Path_14" data-name="Path 14" d="M243.789,353.976c.127.011.247.025.378.039a1.361,1.361,0,0,0-.378-.039" transform="translate(514.469 -31.117)" fill="#fff"/>
      <path id="Path_15" data-name="Path 15" d="M184.019,361.414a4.722,4.722,0,0,0-.078.491c.035-.173.046-.336.078-.491" transform="translate(523.546 -32.662)" fill="#fff"/>
      <path id="Path_16" data-name="Path 16" d="M224.9,361.688c.042-.035.081-.071.117-.1a.978.978,0,0,0-.117.1" transform="translate(517.342 -32.661)" fill="#fff"/>
      <path id="Path_17" data-name="Path 17" d="M330.938,359.352c.032.018.085.039.127.06.021-.011.018-.025-.127-.06" transform="translate(495.82 -32.205)" fill="#fff"/>
      <path id="Path_18" data-name="Path 18" d="M318.06,356.079a1.88,1.88,0,0,0-.646-.18,2.306,2.306,0,0,0,.646.18" transform="translate(497.116 -31.518)" fill="#fff"/>
      <path id="Path_19" data-name="Path 19" d="M315.98,355.246c.021.014.042.021.067.039a.331.331,0,0,0-.067-.039" transform="translate(497.253 -31.373)" fill="#fff"/>
      <path id="Path_20" data-name="Path 20" d="M329.652,361.327a.012.012,0,0,0,0-.007s-.007,0-.011,0l.007,0" transform="translate(495.944 -32.598)" fill="#fff"/>
      <path id="Path_21" data-name="Path 21" d="M326.831,360.235a1.588,1.588,0,0,0-.159-.1.726.726,0,0,0,.159.1" transform="translate(496.229 -32.367)" fill="#fff"/>
      <path id="Path_22" data-name="Path 22" d="M309.116,353.183a0,0,0,0,0,0,0s-.007,0-.014,0a.027.027,0,0,1,.011.007" transform="translate(497.912 -30.952)" fill="#fff"/>
      <path id="Path_25" data-name="Path 25" d="M329.96,361.466c-.113-.042-.219-.088-.328-.138-.007.025-.032.046-.194.018.173.039.343.085.523.12" transform="translate(495.964 -32.612)" fill="#fff"/>
      <path id="Path_26" data-name="Path 26" d="M313.338,354.327a.764.764,0,0,0-.124-.011c.078.021.106.018.124.011" transform="translate(497.518 -31.183)" fill="#fff"/>
      <path id="Path_27" data-name="Path 27" d="M309.2,353.29c.272.046.042-.046-.081-.106-.011.018-.011.049.081.106" transform="translate(497.911 -30.964)" fill="#fff"/>
      <path id="Path_28" data-name="Path 28" d="M340.478,362.969c-.064.011-.1.028-.092.049.085-.021.1-.039.092-.049" transform="translate(494.915 -32.935)" fill="#fff"/>
      <path id="Path_29" data-name="Path 29" d="M333.392,362.219a1.128,1.128,0,0,0-.279-.032.877.877,0,0,0,.279.032" transform="translate(495.612 -32.776)" fill="#fff"/>
    </g>
    <path id="Path_30" data-name="Path 30" d="M3031.312,555.753c-89.926-48.245-153.817,3.106-215.746,16.872-62.053,13.793-61.619-21.129-100.392-28.125s-80.06,15.013-132.064,28.125S2527.4,550.25,2479.949,544.5s-94.656,50.282-124.9,33.181c-24.128-12.005-64.39-44.8-104.845-27.545-63.586,34.3-95.875,26.3-77.271,27.14-103.371,2.078-72.78-44.108-158.055-10.323-89.32,29.518-136.75-10.917-136.75-10.917" transform="translate(-1633.127 -106.609)" fill="none" stroke="#fff" stroke-width="10"/>
    <text id="apprenant" transform="translate(245 197)" fill="#fff" font-size="210" font-family="HelveticaNeue, Helvetica Neue"><tspan x="0" y="200">apprenant</tspan></text>
  </g>
</svg>
